<mxfile host="65bd71144e">
    <diagram id="3xxxpGB8uzVEkUUVOhj-" name="Page-1">
        <mxGraphModel dx="3545" dy="1462" grid="0" gridSize="10" guides="1" tooltips="1" connect="1" arrows="1" fold="1" page="0" pageScale="1" pageWidth="827" pageHeight="1169" background="none" math="0" shadow="0">
            <root>
                <mxCell id="0"/>
                <mxCell id="1" parent="0"/>
                <mxCell id="93" value="User" style="swimlane;fontStyle=0;childLayout=stackLayout;horizontal=1;startSize=30;horizontalStack=0;resizeParent=1;resizeParentMax=0;resizeLast=0;collapsible=1;marginBottom=0;fillColor=#1ba1e2;fontColor=#ffffff;strokeColor=#006EAF;rounded=0;sketch=1;" parent="1" vertex="1">
                    <mxGeometry x="-1635" y="-616" width="100" height="202" as="geometry">
                        <mxRectangle x="-1184" y="-603" width="52" height="30" as="alternateBounds"/>
                    </mxGeometry>
                </mxCell>
                <mxCell id="94" value="Code_user" style="text;strokeColor=none;fillColor=none;align=left;verticalAlign=middle;spacingLeft=4;spacingRight=4;overflow=hidden;points=[[0,0.5],[1,0.5]];portConstraint=eastwest;rotatable=0;fontStyle=4;rounded=0;sketch=1;" parent="93" vertex="1">
                    <mxGeometry y="30" width="100" height="30" as="geometry"/>
                </mxCell>
                <mxCell id="96" value="Pseudo" style="text;strokeColor=none;fillColor=none;align=left;verticalAlign=middle;spacingLeft=4;spacingRight=4;overflow=hidden;points=[[0,0.5],[1,0.5]];portConstraint=eastwest;rotatable=0;rounded=0;sketch=1;" parent="93" vertex="1">
                    <mxGeometry y="60" width="100" height="28" as="geometry"/>
                </mxCell>
                <mxCell id="97" value="email" style="text;strokeColor=none;fillColor=none;align=left;verticalAlign=middle;spacingLeft=4;spacingRight=4;overflow=hidden;points=[[0,0.5],[1,0.5]];portConstraint=eastwest;rotatable=0;rounded=0;sketch=1;" parent="93" vertex="1">
                    <mxGeometry y="88" width="100" height="30" as="geometry"/>
                </mxCell>
                <mxCell id="105" value="password" style="text;strokeColor=none;fillColor=none;align=left;verticalAlign=middle;spacingLeft=4;spacingRight=4;overflow=hidden;points=[[0,0.5],[1,0.5]];portConstraint=eastwest;rotatable=0;rounded=0;sketch=1;" parent="93" vertex="1">
                    <mxGeometry y="118" width="100" height="28" as="geometry"/>
                </mxCell>
                <mxCell id="107" value="role" style="text;strokeColor=none;fillColor=none;align=left;verticalAlign=middle;spacingLeft=4;spacingRight=4;overflow=hidden;points=[[0,0.5],[1,0.5]];portConstraint=eastwest;rotatable=0;rounded=0;sketch=1;" parent="93" vertex="1">
                    <mxGeometry y="146" width="100" height="28" as="geometry"/>
                </mxCell>
                <mxCell id="108" value="is_active" style="text;strokeColor=none;fillColor=none;align=left;verticalAlign=middle;spacingLeft=4;spacingRight=4;overflow=hidden;points=[[0,0.5],[1,0.5]];portConstraint=eastwest;rotatable=0;rounded=0;sketch=1;" parent="93" vertex="1">
                    <mxGeometry y="174" width="100" height="28" as="geometry"/>
                </mxCell>
                <mxCell id="109" value="Game" style="swimlane;fontStyle=0;childLayout=stackLayout;horizontal=1;startSize=30;horizontalStack=0;resizeParent=1;resizeParentMax=0;resizeLast=0;collapsible=1;marginBottom=0;fillColor=#60a917;fontColor=#ffffff;strokeColor=#2D7600;rounded=0;sketch=1;" parent="1" vertex="1">
                    <mxGeometry x="-1052" y="-547" width="100" height="90" as="geometry">
                        <mxRectangle x="-1184" y="-603" width="52" height="30" as="alternateBounds"/>
                    </mxGeometry>
                </mxCell>
                <mxCell id="110" value="Code_game" style="text;strokeColor=none;fillColor=none;align=left;verticalAlign=middle;spacingLeft=4;spacingRight=4;overflow=hidden;points=[[0,0.5],[1,0.5]];portConstraint=eastwest;rotatable=0;fontStyle=4;rounded=0;sketch=1;" parent="109" vertex="1">
                    <mxGeometry y="30" width="100" height="30" as="geometry"/>
                </mxCell>
                <mxCell id="279" value="game_number" style="text;strokeColor=none;fillColor=none;align=left;verticalAlign=middle;spacingLeft=4;spacingRight=4;overflow=hidden;points=[[0,0.5],[1,0.5]];portConstraint=eastwest;rotatable=0;fontStyle=0;rounded=0;sketch=1;" vertex="1" parent="109">
                    <mxGeometry y="60" width="100" height="30" as="geometry"/>
                </mxCell>
                <mxCell id="122" value="Score" style="swimlane;fontStyle=0;childLayout=stackLayout;horizontal=1;startSize=30;horizontalStack=0;resizeParent=1;resizeParentMax=0;resizeLast=0;collapsible=1;marginBottom=0;fillColor=#f0a30a;strokeColor=#BD7000;rounded=0;fontColor=#FFFFFF;sketch=1;" parent="1" vertex="1">
                    <mxGeometry x="-1042" y="-785" width="100" height="90" as="geometry">
                        <mxRectangle x="-1184" y="-603" width="52" height="30" as="alternateBounds"/>
                    </mxGeometry>
                </mxCell>
                <mxCell id="123" value="Code_score" style="text;strokeColor=none;fillColor=none;align=left;verticalAlign=middle;spacingLeft=4;spacingRight=4;overflow=hidden;points=[[0,0.5],[1,0.5]];portConstraint=eastwest;rotatable=0;fontStyle=4;rounded=0;sketch=1;" parent="122" vertex="1">
                    <mxGeometry y="30" width="100" height="30" as="geometry"/>
                </mxCell>
                <mxCell id="267" value="score" style="text;strokeColor=none;fillColor=none;align=left;verticalAlign=middle;spacingLeft=4;spacingRight=4;overflow=hidden;points=[[0,0.5],[1,0.5]];portConstraint=eastwest;rotatable=0;fontStyle=0;rounded=0;sketch=1;" vertex="1" parent="122">
                    <mxGeometry y="60" width="100" height="30" as="geometry"/>
                </mxCell>
                <mxCell id="147" value="" style="endArrow=classic;html=1;fontColor=#FFFFFF;startArrow=classic;startFill=1;entryX=-0.028;entryY=0.05;entryDx=0;entryDy=0;entryPerimeter=0;exitX=1;exitY=0.5;exitDx=0;exitDy=0;sketch=1;" parent="1" source="97" target="123" edge="1">
                    <mxGeometry relative="1" as="geometry">
                        <mxPoint x="-1187" y="-545" as="sourcePoint"/>
                        <mxPoint x="-923" y="-702" as="targetPoint"/>
                    </mxGeometry>
                </mxCell>
                <mxCell id="148" value="Obtient" style="edgeLabel;resizable=0;html=1;align=center;verticalAlign=middle;fontColor=#FFFFFF;sketch=1;" parent="147" connectable="0" vertex="1">
                    <mxGeometry relative="1" as="geometry"/>
                </mxCell>
                <mxCell id="149" value="0/N" style="edgeLabel;resizable=0;html=1;align=left;verticalAlign=bottom;fontColor=#FFFFFF;sketch=1;" parent="147" connectable="0" vertex="1">
                    <mxGeometry x="-1" relative="1" as="geometry">
                        <mxPoint x="13" y="-14" as="offset"/>
                    </mxGeometry>
                </mxCell>
                <mxCell id="150" value="1/1" style="edgeLabel;resizable=0;html=1;align=right;verticalAlign=bottom;fontColor=#FFFFFF;sketch=1;" parent="147" connectable="0" vertex="1">
                    <mxGeometry x="1" relative="1" as="geometry">
                        <mxPoint x="-15" y="14" as="offset"/>
                    </mxGeometry>
                </mxCell>
                <mxCell id="158" value="" style="endArrow=classic;html=1;fontColor=#FFFFFF;entryX=-0.026;entryY=0.081;entryDx=0;entryDy=0;entryPerimeter=0;startArrow=classic;startFill=1;exitX=1;exitY=0.5;exitDx=0;exitDy=0;sketch=1;" parent="1" source="97" target="110" edge="1">
                    <mxGeometry relative="1" as="geometry">
                        <mxPoint x="-1193" y="-545" as="sourcePoint"/>
                        <mxPoint x="-964" y="-714" as="targetPoint"/>
                    </mxGeometry>
                </mxCell>
                <mxCell id="159" value="Rejoint" style="edgeLabel;resizable=0;html=1;align=center;verticalAlign=middle;fontColor=#FFFFFF;sketch=1;" parent="158" connectable="0" vertex="1">
                    <mxGeometry relative="1" as="geometry"/>
                </mxCell>
                <mxCell id="160" value="0/N" style="edgeLabel;resizable=0;html=1;align=left;verticalAlign=bottom;fontColor=#FFFFFF;sketch=1;" parent="158" connectable="0" vertex="1">
                    <mxGeometry x="-1" relative="1" as="geometry">
                        <mxPoint x="14" y="20" as="offset"/>
                    </mxGeometry>
                </mxCell>
                <mxCell id="161" value="1/N" style="edgeLabel;resizable=0;html=1;align=right;verticalAlign=bottom;fontColor=#FFFFFF;sketch=1;" parent="158" connectable="0" vertex="1">
                    <mxGeometry x="1" relative="1" as="geometry"/>
                </mxCell>
                <mxCell id="162" value="Question" style="swimlane;fontStyle=0;childLayout=stackLayout;horizontal=1;startSize=30;horizontalStack=0;resizeParent=1;resizeParentMax=0;resizeLast=0;collapsible=1;marginBottom=0;fillColor=#b1ddf0;strokeColor=#10739e;rounded=0;sketch=1;" parent="1" vertex="1">
                    <mxGeometry x="-1057" y="-351" width="100" height="180" as="geometry">
                        <mxRectangle x="-1184" y="-603" width="52" height="30" as="alternateBounds"/>
                    </mxGeometry>
                </mxCell>
                <mxCell id="171" value="Code_question" style="text;strokeColor=none;fillColor=none;align=left;verticalAlign=middle;spacingLeft=4;spacingRight=4;overflow=hidden;points=[[0,0.5],[1,0.5]];portConstraint=eastwest;rotatable=0;fontStyle=4;rounded=0;sketch=1;" parent="162" vertex="1">
                    <mxGeometry y="30" width="100" height="30" as="geometry"/>
                </mxCell>
                <mxCell id="168" value="énoncé" style="text;strokeColor=none;fillColor=none;align=left;verticalAlign=middle;spacingLeft=4;spacingRight=4;overflow=hidden;points=[[0,0.5],[1,0.5]];portConstraint=eastwest;rotatable=0;fontStyle=0;rounded=0;sketch=1;" parent="162" vertex="1">
                    <mxGeometry y="60" width="100" height="30" as="geometry"/>
                </mxCell>
                <mxCell id="170" value="niveau" style="text;strokeColor=none;fillColor=none;align=left;verticalAlign=middle;spacingLeft=4;spacingRight=4;overflow=hidden;points=[[0,0.5],[1,0.5]];portConstraint=eastwest;rotatable=0;fontStyle=0;rounded=0;sketch=1;" parent="162" vertex="1">
                    <mxGeometry y="90" width="100" height="30" as="geometry"/>
                </mxCell>
                <mxCell id="172" value="timer" style="text;strokeColor=none;fillColor=none;align=left;verticalAlign=middle;spacingLeft=4;spacingRight=4;overflow=hidden;points=[[0,0.5],[1,0.5]];portConstraint=eastwest;rotatable=0;fontStyle=0;rounded=0;sketch=1;" parent="162" vertex="1">
                    <mxGeometry y="120" width="100" height="30" as="geometry"/>
                </mxCell>
                <mxCell id="163" value="média" style="text;strokeColor=none;fillColor=none;align=left;verticalAlign=middle;spacingLeft=4;spacingRight=4;overflow=hidden;points=[[0,0.5],[1,0.5]];portConstraint=eastwest;rotatable=0;fontStyle=0;rounded=0;sketch=1;" parent="162" vertex="1">
                    <mxGeometry y="150" width="100" height="30" as="geometry"/>
                </mxCell>
                <mxCell id="164" value="Answer" style="swimlane;fontStyle=0;childLayout=stackLayout;horizontal=1;startSize=30;horizontalStack=0;resizeParent=1;resizeParentMax=0;resizeLast=0;collapsible=1;marginBottom=0;fillColor=#ffff88;strokeColor=#36393d;rounded=0;sketch=1;" parent="1" vertex="1">
                    <mxGeometry x="-756" y="-323" width="100" height="90" as="geometry">
                        <mxRectangle x="-1184" y="-603" width="52" height="30" as="alternateBounds"/>
                    </mxGeometry>
                </mxCell>
                <mxCell id="174" value="Code_answer" style="text;strokeColor=none;fillColor=none;align=left;verticalAlign=middle;spacingLeft=4;spacingRight=4;overflow=hidden;points=[[0,0.5],[1,0.5]];portConstraint=eastwest;rotatable=0;fontStyle=4;rounded=0;sketch=1;" parent="164" vertex="1">
                    <mxGeometry y="30" width="100" height="30" as="geometry"/>
                </mxCell>
                <mxCell id="173" value="réponse" style="text;strokeColor=none;fillColor=none;align=left;verticalAlign=middle;spacingLeft=4;spacingRight=4;overflow=hidden;points=[[0,0.5],[1,0.5]];portConstraint=eastwest;rotatable=0;fontStyle=0;rounded=0;sketch=1;" parent="164" vertex="1">
                    <mxGeometry y="60" width="100" height="30" as="geometry"/>
                </mxCell>
                <mxCell id="175" value="" style="endArrow=classic;html=1;fontColor=#FFFFFF;entryX=-0.015;entryY=0.082;entryDx=0;entryDy=0;entryPerimeter=0;exitX=1.017;exitY=1.086;exitDx=0;exitDy=0;exitPerimeter=0;startArrow=classic;startFill=1;sketch=1;" parent="1" source="168" target="173" edge="1">
                    <mxGeometry relative="1" as="geometry">
                        <mxPoint x="-1122" y="-294.43" as="sourcePoint"/>
                        <mxPoint x="-812.5999999999999" y="-297.00000000000017" as="targetPoint"/>
                    </mxGeometry>
                </mxCell>
                <mxCell id="176" value="possède" style="edgeLabel;resizable=0;html=1;align=center;verticalAlign=middle;fontColor=#FFFFFF;sketch=1;" parent="175" connectable="0" vertex="1">
                    <mxGeometry relative="1" as="geometry"/>
                </mxCell>
                <mxCell id="177" value="0/1" style="edgeLabel;resizable=0;html=1;align=left;verticalAlign=bottom;fontColor=#FFFFFF;sketch=1;" parent="175" connectable="0" vertex="1">
                    <mxGeometry x="-1" relative="1" as="geometry">
                        <mxPoint y="21" as="offset"/>
                    </mxGeometry>
                </mxCell>
                <mxCell id="178" value="1/N" style="edgeLabel;resizable=0;html=1;align=right;verticalAlign=bottom;fontColor=#FFFFFF;sketch=1;" parent="175" connectable="0" vertex="1">
                    <mxGeometry x="1" relative="1" as="geometry"/>
                </mxCell>
                <mxCell id="179" value="" style="endArrow=classic;html=1;fontColor=#FFFFFF;entryX=0.447;entryY=1.013;entryDx=0;entryDy=0;entryPerimeter=0;startArrow=classic;startFill=1;exitX=0.5;exitY=0;exitDx=0;exitDy=0;sketch=1;" parent="1" source="162" target="279" edge="1">
                    <mxGeometry relative="1" as="geometry">
                        <mxPoint x="-1183" y="-532" as="sourcePoint"/>
                        <mxPoint x="-873.5999999999999" y="-534.5700000000002" as="targetPoint"/>
                    </mxGeometry>
                </mxCell>
                <mxCell id="180" value="Comprends" style="edgeLabel;resizable=0;html=1;align=center;verticalAlign=middle;fontColor=#FFFFFF;sketch=1;" parent="179" connectable="0" vertex="1">
                    <mxGeometry relative="1" as="geometry"/>
                </mxCell>
                <mxCell id="181" value="0/N" style="edgeLabel;resizable=0;html=1;align=left;verticalAlign=bottom;fontColor=#FFFFFF;sketch=1;" parent="179" connectable="0" vertex="1">
                    <mxGeometry x="-1" relative="1" as="geometry">
                        <mxPoint y="-14" as="offset"/>
                    </mxGeometry>
                </mxCell>
                <mxCell id="182" value="N/N" style="edgeLabel;resizable=0;html=1;align=right;verticalAlign=bottom;fontColor=#FFFFFF;sketch=1;" parent="179" connectable="0" vertex="1">
                    <mxGeometry x="1" relative="1" as="geometry">
                        <mxPoint x="31" y="20" as="offset"/>
                    </mxGeometry>
                </mxCell>
                <mxCell id="183" value="" style="endArrow=classic;html=1;fontColor=#FFFFFF;startArrow=classic;startFill=1;entryX=0.464;entryY=1.06;entryDx=0;entryDy=0;entryPerimeter=0;exitX=0.5;exitY=0;exitDx=0;exitDy=0;sketch=1;" parent="1" source="109" target="267" edge="1">
                    <mxGeometry relative="1" as="geometry">
                        <mxPoint x="-828" y="-582" as="sourcePoint"/>
                        <mxPoint x="-838" y="-732" as="targetPoint"/>
                    </mxGeometry>
                </mxCell>
                <mxCell id="184" value="Attribue" style="edgeLabel;resizable=0;html=1;align=center;verticalAlign=middle;fontColor=#FFFFFF;sketch=1;" parent="183" connectable="0" vertex="1">
                    <mxGeometry relative="1" as="geometry"/>
                </mxCell>
                <mxCell id="185" value="1/N" style="edgeLabel;resizable=0;html=1;align=left;verticalAlign=bottom;fontColor=#FFFFFF;sketch=1;" parent="183" connectable="0" vertex="1">
                    <mxGeometry x="-1" relative="1" as="geometry">
                        <mxPoint x="18" y="1" as="offset"/>
                    </mxGeometry>
                </mxCell>
                <mxCell id="186" value="1/1" style="edgeLabel;resizable=0;html=1;align=right;verticalAlign=bottom;fontColor=#FFFFFF;sketch=1;" parent="183" connectable="0" vertex="1">
                    <mxGeometry x="1" relative="1" as="geometry">
                        <mxPoint x="-8" y="23" as="offset"/>
                    </mxGeometry>
                </mxCell>
                <mxCell id="187" value="message" style="swimlane;fontStyle=0;childLayout=stackLayout;horizontal=1;startSize=30;horizontalStack=0;resizeParent=1;resizeParentMax=0;resizeLast=0;collapsible=1;marginBottom=0;fillColor=#76608a;fontColor=#ffffff;strokeColor=#432D57;rounded=0;sketch=1;" parent="1" vertex="1">
                    <mxGeometry x="-1527" y="-225" width="140" height="90" as="geometry"/>
                </mxCell>
                <mxCell id="188" value="code_message" style="text;strokeColor=none;fillColor=none;align=left;verticalAlign=middle;spacingLeft=4;spacingRight=4;overflow=hidden;points=[[0,0.5],[1,0.5]];portConstraint=eastwest;rotatable=0;fontStyle=4;rounded=0;sketch=1;" parent="187" vertex="1">
                    <mxGeometry y="30" width="140" height="30" as="geometry"/>
                </mxCell>
                <mxCell id="189" value="content" style="text;strokeColor=none;fillColor=none;align=left;verticalAlign=middle;spacingLeft=4;spacingRight=4;overflow=hidden;points=[[0,0.5],[1,0.5]];portConstraint=eastwest;rotatable=0;rounded=0;sketch=1;" parent="187" vertex="1">
                    <mxGeometry y="60" width="140" height="30" as="geometry"/>
                </mxCell>
                <mxCell id="192" value="" style="endArrow=classic;html=1;fontColor=#FFFFFF;startArrow=classic;startFill=1;entryX=1;entryY=0.5;entryDx=0;entryDy=0;exitX=0.5;exitY=0;exitDx=0;exitDy=0;sketch=1;" parent="1" source="187" target="105" edge="1">
                    <mxGeometry relative="1" as="geometry">
                        <mxPoint x="-1215" y="-440" as="sourcePoint"/>
                        <mxPoint x="-1361.8000000000002" y="-459" as="targetPoint"/>
                    </mxGeometry>
                </mxCell>
                <mxCell id="193" value="Envoie" style="edgeLabel;resizable=0;html=1;align=center;verticalAlign=middle;fontColor=#FFFFFF;sketch=1;" parent="192" connectable="0" vertex="1">
                    <mxGeometry relative="1" as="geometry"/>
                </mxCell>
                <mxCell id="195" value="0/N" style="edgeLabel;resizable=0;html=1;align=right;verticalAlign=bottom;fontColor=#FFFFFF;sketch=1;" parent="192" connectable="0" vertex="1">
                    <mxGeometry x="1" relative="1" as="geometry">
                        <mxPoint x="27" y="13" as="offset"/>
                    </mxGeometry>
                </mxCell>
                <mxCell id="201" value="User_Answer" style="swimlane;fontStyle=0;childLayout=stackLayout;horizontal=1;startSize=30;horizontalStack=0;resizeParent=1;resizeParentMax=0;resizeLast=0;collapsible=1;marginBottom=0;fillColor=#a0522d;strokeColor=#6D1F00;rounded=0;fontColor=#ffffff;sketch=1;" vertex="1" parent="1">
                    <mxGeometry x="-1263" y="-243" width="100" height="90" as="geometry">
                        <mxRectangle x="-1184" y="-603" width="52" height="30" as="alternateBounds"/>
                    </mxGeometry>
                </mxCell>
                <mxCell id="202" value="Code_answer" style="text;strokeColor=none;fillColor=none;align=left;verticalAlign=middle;spacingLeft=4;spacingRight=4;overflow=hidden;points=[[0,0.5],[1,0.5]];portConstraint=eastwest;rotatable=0;fontStyle=4;rounded=0;sketch=1;" vertex="1" parent="201">
                    <mxGeometry y="30" width="100" height="30" as="geometry"/>
                </mxCell>
                <mxCell id="203" value="réponse" style="text;strokeColor=none;fillColor=none;align=left;verticalAlign=middle;spacingLeft=4;spacingRight=4;overflow=hidden;points=[[0,0.5],[1,0.5]];portConstraint=eastwest;rotatable=0;fontStyle=0;rounded=0;sketch=1;" vertex="1" parent="201">
                    <mxGeometry y="60" width="100" height="30" as="geometry"/>
                </mxCell>
                <mxCell id="204" value="" style="endArrow=classic;html=1;fontColor=#FFFFFF;startArrow=classic;startFill=1;entryX=-0.006;entryY=1.115;entryDx=0;entryDy=0;exitX=1;exitY=0;exitDx=0;exitDy=0;entryPerimeter=0;sketch=1;" edge="1" parent="1" source="187" target="110">
                    <mxGeometry relative="1" as="geometry">
                        <mxPoint x="-1241" y="-233" as="sourcePoint"/>
                        <mxPoint x="-1317" y="-439" as="targetPoint"/>
                    </mxGeometry>
                </mxCell>
                <mxCell id="205" value="fait partie" style="edgeLabel;resizable=0;html=1;align=center;verticalAlign=middle;fontColor=#FFFFFF;sketch=1;" connectable="0" vertex="1" parent="204">
                    <mxGeometry relative="1" as="geometry"/>
                </mxCell>
                <mxCell id="207" value="1/1" style="edgeLabel;resizable=0;html=1;align=right;verticalAlign=bottom;fontColor=#FFFFFF;sketch=1;" connectable="0" vertex="1" parent="1">
                    <mxGeometry x="-1471.9972830834618" y="-285.9957936209619" as="geometry"/>
                </mxCell>
                <mxCell id="208" value="1/1" style="edgeLabel;resizable=0;html=1;align=right;verticalAlign=bottom;fontColor=#FFFFFF;sketch=1;" connectable="0" vertex="1" parent="1">
                    <mxGeometry x="-1377.9972830834618" y="-224.99579362096188" as="geometry">
                        <mxPoint x="3" y="-15" as="offset"/>
                    </mxGeometry>
                </mxCell>
                <mxCell id="209" value="0/N" style="edgeLabel;resizable=0;html=1;align=right;verticalAlign=bottom;fontColor=#FFFFFF;sketch=1;" connectable="0" vertex="1" parent="1">
                    <mxGeometry x="-1067.9972830834618" y="-475.9957936209619" as="geometry"/>
                </mxCell>
                <mxCell id="280" value="" style="endArrow=classic;html=1;fontColor=#FFFFFF;exitX=0.005;exitY=0.093;exitDx=0;exitDy=0;startArrow=classic;startFill=1;sketch=1;entryX=1;entryY=0;entryDx=0;entryDy=0;exitPerimeter=0;" edge="1" parent="1" source="170" target="201">
                    <mxGeometry relative="1" as="geometry">
                        <mxPoint x="-942.0000000000002" y="-360.00000000000006" as="sourcePoint"/>
                        <mxPoint x="-750" y="-476" as="targetPoint"/>
                    </mxGeometry>
                </mxCell>
                <mxCell id="281" value="a&lt;br&gt;" style="edgeLabel;resizable=0;html=1;align=center;verticalAlign=middle;fontColor=#FFFFFF;sketch=1;" connectable="0" vertex="1" parent="280">
                    <mxGeometry relative="1" as="geometry"/>
                </mxCell>
                <mxCell id="282" value="1/1" style="edgeLabel;resizable=0;html=1;align=left;verticalAlign=bottom;fontColor=#FFFFFF;sketch=1;" connectable="0" vertex="1" parent="280">
                    <mxGeometry x="-1" relative="1" as="geometry">
                        <mxPoint y="21" as="offset"/>
                    </mxGeometry>
                </mxCell>
                <mxCell id="283" value="1/1" style="edgeLabel;resizable=0;html=1;align=right;verticalAlign=bottom;fontColor=#FFFFFF;sketch=1;" connectable="0" vertex="1" parent="280">
                    <mxGeometry x="1" relative="1" as="geometry"/>
                </mxCell>
                <mxCell id="284" value="" style="endArrow=classic;html=1;fontColor=#FFFFFF;entryX=0;entryY=0;entryDx=0;entryDy=0;startArrow=classic;startFill=1;exitX=1;exitY=0.898;exitDx=0;exitDy=0;sketch=1;exitPerimeter=0;" edge="1" parent="1" source="108" target="201">
                    <mxGeometry relative="1" as="geometry">
                        <mxPoint x="-1525" y="-503" as="sourcePoint"/>
                        <mxPoint x="-1044.6000000000004" y="-504.57000000000005" as="targetPoint"/>
                    </mxGeometry>
                </mxCell>
                <mxCell id="285" value="réponds" style="edgeLabel;resizable=0;html=1;align=center;verticalAlign=middle;fontColor=#FFFFFF;sketch=1;" connectable="0" vertex="1" parent="284">
                    <mxGeometry relative="1" as="geometry"/>
                </mxCell>
                <mxCell id="286" value="0/N" style="edgeLabel;resizable=0;html=1;align=left;verticalAlign=bottom;fontColor=#FFFFFF;sketch=1;" connectable="0" vertex="1" parent="284">
                    <mxGeometry x="-1" relative="1" as="geometry">
                        <mxPoint x="14" y="20" as="offset"/>
                    </mxGeometry>
                </mxCell>
                <mxCell id="287" value="1/1" style="edgeLabel;resizable=0;html=1;align=right;verticalAlign=bottom;fontColor=#FFFFFF;sketch=1;" connectable="0" vertex="1" parent="284">
                    <mxGeometry x="1" relative="1" as="geometry"/>
                </mxCell>
                <mxCell id="288" value="0/1" style="edgeLabel;resizable=0;html=1;align=left;verticalAlign=bottom;fontColor=#FFFFFF;sketch=1;" connectable="0" vertex="1" parent="1">
                    <mxGeometry x="-1082.0000000000002" y="-261.00000000000006" as="geometry"/>
                </mxCell>
            </root>
        </mxGraphModel>
    </diagram>
    <diagram id="fOvVJ5IIrl5qBZ8FNNcn" name="Page-1">
        <mxGraphModel dx="2634" dy="1188" grid="1" gridSize="10" guides="1" tooltips="1" connect="1" arrows="1" fold="1" page="1" pageScale="1" pageWidth="827" pageHeight="1169" math="0" shadow="0">
            <root>
                <mxCell id="0"/>
                <mxCell id="1" parent="0"/>
            </root>
        </mxGraphModel>
    </diagram>
</mxfile>